<?xml version="1.0" encoding="utf-8"?>
<svg viewBox="0 0 500 500" xmlns="http://www.w3.org/2000/svg">
  <path d="M 57.773 32.26 C 57.773 37.89 53.261 42.455 47.695 42.455 C 42.128 42.455 37.616 37.89 37.616 32.26 C 37.616 26.629 42.128 22.065 47.695 22.065 C 53.261 22.065 57.773 26.629 57.773 32.26 Z" fill="#FFD910"/>
  <path fill-rule="evenodd" clip-rule="evenodd" d="M 47.695 38.455 C 51.009 38.455 53.773 35.725 53.773 32.26 C 53.773 28.795 51.009 26.065 47.695 26.065 C 44.38 26.065 41.616 28.795 41.616 32.26 C 41.616 35.725 44.38 38.455 47.695 38.455 Z M 47.695 42.455 C 53.261 42.455 57.773 37.89 57.773 32.26 C 57.773 26.629 53.261 22.065 47.695 22.065 C 42.128 22.065 37.616 26.629 37.616 32.26 C 37.616 37.89 42.128 42.455 47.695 42.455 Z" fill="#192330"/>
  <path d="M 32.931 32.26 C 32.931 37.89 28.419 42.455 22.852 42.455 C 17.286 42.455 12.773 37.89 12.773 32.26 C 12.773 26.629 17.286 22.065 22.852 22.065 C 28.419 22.065 32.931 26.629 32.931 32.26 Z" fill="#FFD910"/>
  <path fill-rule="evenodd" clip-rule="evenodd" d="M 22.852 38.455 C 26.166 38.455 28.931 35.725 28.931 32.26 C 28.931 28.795 26.166 26.065 22.852 26.065 C 19.538 26.065 16.773 28.795 16.773 32.26 C 16.773 35.725 19.538 38.455 22.852 38.455 Z M 22.852 42.455 C 28.419 42.455 32.931 37.89 32.931 32.26 C 32.931 26.629 28.419 22.065 22.852 22.065 C 17.286 22.065 12.773 26.629 12.773 32.26 C 12.773 37.89 17.286 42.455 22.852 42.455 Z" fill="#192330"/>
  <path fill-rule="evenodd" clip-rule="evenodd" d="M 29.882 21.219 C 29.944 21.172 30.019 21.12 30.111 21.063 C 30.98 20.525 32.608 20.011 34.712 19.962 C 38.828 19.865 44.258 21.554 48.159 27.409 C 48.772 28.328 50.014 28.577 50.933 27.964 C 51.852 27.352 52.101 26.11 51.488 25.191 C 46.73 18.051 39.921 15.838 34.618 15.963 C 32.012 16.024 29.635 16.652 28.003 17.664 C 27.204 18.159 26.393 18.866 25.966 19.833 C 25.476 20.944 25.601 22.174 26.361 23.191 C 28.237 25.697 29.498 27.464 30.309 28.718 C 30.482 28.985 30.63 29.223 30.757 29.435 L 21.723 30.048 C 20.621 30.123 19.788 31.077 19.863 32.179 C 19.938 33.281 20.892 34.114 21.994 34.039 L 31.655 33.383 L 31.802 33.351 C 31.979 33.311 32.154 33.286 32.4 33.251 C 32.422 33.248 32.445 33.245 32.468 33.241 L 32.487 33.239 C 32.715 33.206 33.1 33.151 33.463 33.034 C 33.842 32.913 34.501 32.634 34.952 31.939 C 35.42 31.217 35.407 30.448 35.304 29.904 C 35.124 28.95 34.497 27.828 33.668 26.546 C 32.83 25.25 31.6 23.524 29.882 21.219 Z" fill="#192330"/>
  <path fill-rule="evenodd" clip-rule="evenodd" d="M 48.628 16.69 C 48.047 16.474 46.9 16.312 44.815 16.644 C 43.724 16.818 42.699 16.074 42.525 14.984 C 42.352 13.893 43.095 12.868 44.186 12.694 C 46.609 12.308 48.531 12.388 50.019 12.94 C 51.603 13.527 52.57 14.608 53.024 15.849 C 53.443 16.993 53.371 18.117 53.252 18.849 C 53.189 19.232 53.105 19.555 53.036 19.788 C 53 19.905 52.968 20.002 52.943 20.074 C 52.93 20.111 52.919 20.141 52.909 20.165 L 52.897 20.197 L 52.893 20.209 L 52.891 20.214 L 52.89 20.216 C 52.889 20.218 52.889 20.219 51.03 19.479 L 52.889 20.219 C 52.481 21.245 51.318 21.746 50.291 21.338 C 49.27 20.932 48.769 19.779 49.166 18.756 C 49.166 18.756 49.166 18.756 49.166 18.756 C 49.167 18.754 49.168 18.75 49.17 18.745 C 49.176 18.727 49.189 18.691 49.204 18.64 C 49.235 18.537 49.275 18.383 49.304 18.203 C 49.368 17.809 49.355 17.461 49.268 17.223 C 49.216 17.082 49.114 16.87 48.628 16.69 Z M 49.171 18.743 C 49.171 18.743 49.171 18.743 49.171 18.742 C 49.171 18.742 49.171 18.742 49.171 18.742 L 49.171 18.743 Z" fill="#192330"/>
  <text style="white-space: pre; fill: rgb(51, 51, 51); font-family: Arial, sans-serif; font-size: 17.5px;" x="229.515" y="50.803"> </text>
  <text style="fill: rgb(51, 51, 51); font-family: Arial, sans-serif; font-size: 21.5px; font-weight: 700; white-space: pre;" transform="matrix(1.200709, 0, 0, 1.522364, -17.616581, -85.995964)" x="67.818" y="84.344">IRBIKE</text>
  <text style="white-space: pre; fill: rgb(51, 51, 51); font-family: Arial, sans-serif; font-size: 17.5px;" x="36.78" y="-51.822"> </text>
  <text style="white-space: pre; fill: rgb(51, 51, 51); font-family: Arial, sans-serif; font-size: 17.5px;" x="-81.363" y="81.34"> </text>
</svg>