<?xml version="1.0" encoding="UTF-8" standalone="no" ?>
<!DOCTYPE svg PUBLIC "-//W3C//DTD SVG 1.1//EN" "http://www.w3.org/Graphics/SVG/1.1/DTD/svg11.dtd">
<svg xmlns="http://www.w3.org/2000/svg" xmlns:xlink="http://www.w3.org/1999/xlink" version="1.1" width="1080" height="1080" viewBox="0 0 1080 1080" xml:space="preserve">
<desc>Created with Fabric.js 5.2.4</desc>
<defs>
</defs>
<g transform="matrix(1 0 0 1 540 540)" id="c4f64f58-078e-48c9-b823-28f24545bd01"  >
</g>
<g transform="matrix(1 0 0 1 540 540)" id="fd8c6588-7859-4219-9130-ba6c6c970bc4"  >
<rect style="stroke: none; stroke-width: 1; stroke-dasharray: none; stroke-linecap: butt; stroke-dashoffset: 0; stroke-linejoin: miter; stroke-miterlimit: 4; fill: rgb(255,255,255); fill-rule: nonzero; opacity: 1; visibility: hidden;" vector-effect="non-scaling-stroke"  x="-540" y="-540" rx="0" ry="0" width="1080" height="1080" />
</g>
<g transform="matrix(1 0 0 1 570.92 540)" style="" id="7c7b1345-8f5b-460a-8e43-2bfc13ce8982"  >
		<text xml:space="preserve" font-family="Raleway" font-size="33" font-style="normal" font-weight="900" style="stroke: none; stroke-width: 1; stroke-dasharray: none; stroke-linecap: butt; stroke-dashoffset: 0; stroke-linejoin: miter; stroke-miterlimit: 4; fill: rgb(25,35,48); fill-rule: nonzero; opacity: 1; white-space: pre;" ><tspan x="-47.23" y="10.37" >Irbike</tspan></text>
</g>
<g transform="matrix(1 0 0 1 509.37 544.81)"  >
<path style="stroke: none; stroke-width: 1; stroke-dasharray: none; stroke-linecap: butt; stroke-dashoffset: 0; stroke-linejoin: miter; stroke-miterlimit: 4; fill: rgb(255,217,16); fill-rule: nonzero; opacity: 1;" vector-effect="non-scaling-stroke"  transform=" translate(-34.92, -24.81)" d="M 45 24.8051 C 45 30.4357 40.4876 35.0003 34.9212 35.0003 C 29.3547 35.0003 24.8423 30.4357 24.8423 24.8051 C 24.8423 19.1744 29.3547 14.6099 34.9212 14.6099 C 40.4876 14.6099 45 19.1744 45 24.8051 Z" stroke-linecap="round" />
</g>
<g transform="matrix(1 0 0 1 509.37 544.81)"  >
<path style="stroke: none; stroke-width: 1; stroke-dasharray: none; stroke-linecap: butt; stroke-dashoffset: 0; stroke-linejoin: miter; stroke-miterlimit: 4; fill: rgb(25,35,48); fill-rule: evenodd; opacity: 1;" vector-effect="non-scaling-stroke"  transform=" translate(-34.92, -24.81)" d="M 34.9212 31.0003 C 38.2353 31.0003 41 28.27 41 24.8051 C 41 21.3401 38.2353 18.6099 34.9212 18.6099 C 31.607 18.6099 28.8423 21.3401 28.8423 24.8051 C 28.8423 28.27 31.607 31.0003 34.9212 31.0003 Z M 34.9212 35.0003 C 40.4876 35.0003 45 30.4357 45 24.8051 C 45 19.1744 40.4876 14.6099 34.9212 14.6099 C 29.3547 14.6099 24.8423 19.1744 24.8423 24.8051 C 24.8423 30.4357 29.3547 35.0003 34.9212 35.0003 Z" stroke-linecap="round" />
</g>
<g transform="matrix(1 0 0 1 484.53 544.81)"  >
<path style="stroke: none; stroke-width: 1; stroke-dasharray: none; stroke-linecap: butt; stroke-dashoffset: 0; stroke-linejoin: miter; stroke-miterlimit: 4; fill: rgb(255,217,16); fill-rule: nonzero; opacity: 1;" vector-effect="non-scaling-stroke"  transform=" translate(-10.08, -24.81)" d="M 20.1577 24.8051 C 20.1577 30.4357 15.6453 35.0003 10.0789 35.0003 C 4.51246 35.0003 0 30.4357 0 24.8051 C 0 19.1744 4.51246 14.6099 10.0789 14.6099 C 15.6453 14.6099 20.1577 19.1744 20.1577 24.8051 Z" stroke-linecap="round" />
</g>
<g transform="matrix(1 0 0 1 484.53 544.81)"  >
<path style="stroke: none; stroke-width: 1; stroke-dasharray: none; stroke-linecap: butt; stroke-dashoffset: 0; stroke-linejoin: miter; stroke-miterlimit: 4; fill: rgb(25,35,48); fill-rule: evenodd; opacity: 1;" vector-effect="non-scaling-stroke"  transform=" translate(-10.08, -24.81)" d="M 10.0789 31.0003 C 13.393 31.0003 16.1577 28.27 16.1577 24.8051 C 16.1577 21.3401 13.393 18.6099 10.0789 18.6099 C 6.76476 18.6099 4 21.3401 4 24.8051 C 4 28.27 6.76476 31.0003 10.0789 31.0003 Z M 10.0789 35.0003 C 15.6453 35.0003 20.1577 30.4357 20.1577 24.8051 C 20.1577 19.1744 15.6453 14.6099 10.0789 14.6099 C 4.51246 14.6099 0 19.1744 0 24.8051 C 0 30.4357 4.51246 35.0003 10.0789 35.0003 Z" stroke-linecap="round" />
</g>
<g transform="matrix(1 0 0 1 497.51 537.54)"  >
<path style="stroke: none; stroke-width: 1; stroke-dasharray: none; stroke-linecap: butt; stroke-dashoffset: 0; stroke-linejoin: miter; stroke-miterlimit: 4; fill: rgb(25,35,48); fill-rule: evenodd; opacity: 1;" vector-effect="non-scaling-stroke"  transform=" translate(-23.07, -17.55)" d="M 17.1083 13.7646 C 17.1704 13.7178 17.246 13.6655 17.3377 13.6087 C 18.2067 13.0699 19.8349 12.5566 21.9387 12.5072 C 26.055 12.4106 31.4849 14.0998 35.3861 19.9544 C 35.9986 20.8736 37.2403 21.1222 38.1595 20.5097 C 39.0787 19.8972 39.3273 18.6555 38.7148 17.7363 C 33.9567 10.5959 27.1481 8.38382 21.8448 8.50835 C 19.2386 8.56954 16.8617 9.19746 15.23 10.2091 C 14.431 10.7044 13.6197 11.4114 13.1927 12.3787 C 12.7026 13.4892 12.8273 14.7196 13.5881 15.736 C 15.4637 18.2419 16.725 20.0096 17.5356 21.2631 C 17.7082 21.53 17.8568 21.7681 17.984 21.9801 L 8.94964 22.5938 C 7.84761 22.6686 7.01491 23.6226 7.08976 24.7247 C 7.16461 25.8267 8.11866 26.6594 9.22069 26.5846 L 18.8816 25.9284 L 19.0283 25.8959 C 19.2058 25.8567 19.3811 25.8316 19.6264 25.7965 C 19.6486 25.7933 19.6713 25.7901 19.6946 25.7867 L 19.7133 25.784 C 19.9413 25.7514 20.3264 25.6962 20.6901 25.5797 C 21.0685 25.4585 21.7281 25.1794 22.1786 24.4842 C 22.6466 23.762 22.6338 22.9932 22.531 22.4496 C 22.3506 21.4958 21.7237 20.3732 20.8945 19.091 C 20.0568 17.7956 18.8271 16.0698 17.1083 13.7646 Z" stroke-linecap="round" />
</g>
<g transform="matrix(1 0 0 1 509.59 529.51)"  >
<path style="stroke: none; stroke-width: 1; stroke-dasharray: none; stroke-linecap: butt; stroke-dashoffset: 0; stroke-linejoin: miter; stroke-miterlimit: 4; fill: rgb(25,35,48); fill-rule: evenodd; opacity: 1;" vector-effect="non-scaling-stroke"  transform=" translate(-35.15, -9.51)" d="M 35.855 9.23552 C 35.2732 9.01977 34.1263 8.85747 32.0418 9.18951 C 30.951 9.36327 29.9258 8.61984 29.7521 7.52902 C 29.5783 6.43821 30.3217 5.41307 31.4125 5.23931 C 33.8352 4.85341 35.7581 4.93345 37.2457 5.48504 C 38.8298 6.07241 39.7966 7.15287 40.2507 8.39391 C 40.6694 9.53833 40.5979 10.6619 40.4783 11.3939 C 40.4156 11.777 40.3318 12.1006 40.2622 12.3331 C 40.227 12.4504 40.1947 12.5471 40.1692 12.6196 C 40.1564 12.6559 40.1452 12.6864 40.1361 12.7106 L 40.1241 12.7421 L 40.1194 12.7542 L 40.1173 12.7594 L 40.1164 12.7617 C 40.116 12.7629 40.1155 12.7639 38.2571 12.0248 L 40.1155 12.7639 C 39.7073 13.7903 38.5444 14.2914 37.518 13.8832 C 36.4969 13.4771 35.9956 12.3239 36.3926 11.3014 C 36.3926 11.3014 36.3926 11.3014 36.3926 11.3014 C 36.3933 11.2993 36.3947 11.2956 36.3965 11.2904 C 36.4029 11.2722 36.4152 11.2361 36.4304 11.1853 C 36.4614 11.0819 36.5012 10.9287 36.5306 10.7487 C 36.5951 10.3543 36.5812 10.0061 36.4943 9.76842 C 36.4426 9.62737 36.3404 9.41548 35.855 9.23552 Z M 36.3978 11.2881 C 36.3978 11.288 36.3979 11.2879 36.3979 11.2877 C 36.3979 11.2878 36.3979 11.2878 36.3979 11.2878 L 36.3978 11.2881 Z" stroke-linecap="round" />
</g>
</svg>